<?xml version="1.0" encoding="UTF-8"?>
<svg id="Layer_1" xmlns="http://www.w3.org/2000/svg" version="1.1" viewBox="0 0 159.57 50">
  <!-- Generator: Adobe Illustrator 30.8.1, SVG Export Plug-In . SVG Version: 2.1.4 Build 1)  -->
  <defs>
    <style>
      .st0 {
        fill: none;
        stroke: #c9c9c9;
        stroke-miterlimit: 10;
      }

      .st1 {
        fill: #fff;
      }

      .st2 {
        fill: #101e4b;
      }
    </style>
  </defs>
  <g>
    <path d="M69,14.42l.17,3.19h-.41c-.34-2.53-1.31-2.7-3.4-2.7h-1.56v5.08h.88c1.38,0,1.73-.41,2-2.17h.36v5.03h-.39c-.31-1.87-.58-2.31-2.14-2.31h-.71v5.28h1.78c2.45,0,3.3-.73,3.69-3.04h.34l-.12,3.53h-8.82v-.49h1.34v-10.91h-1.34v-.49h8.33Z"/>
    <path d="M79.51,14.92h-1.72v-.49h3.52v.49h-1.12l-4.35,11.57h-.39l-4.2-11.57h-1.14v-.49h4.76v.49h-1.67l3.04,8.95,3.26-8.95Z"/>
    <path d="M90.34,14.42l.17,3.19h-.41c-.34-2.53-1.31-2.7-3.4-2.7h-1.56v5.08h.88c1.38,0,1.73-.41,2-2.17h.36v5.03h-.39c-.31-1.87-.58-2.31-2.14-2.31h-.71v5.28h1.78c2.45,0,3.3-.73,3.69-3.04h.34l-.12,3.53h-8.82v-.49h1.34v-10.91h-1.34v-.49h8.33Z"/>
    <path d="M95.61,20.45v5.37h1.78v.49h-5.01v-.49h1.44v-10.91h-1.44v-.49h4.03c2.6,0,4.72.39,4.72,2.82,0,2.02-1.36,2.72-3.38,2.87v.05c2.09.24,2.85.95,2.85,2.92v1.51c0,.63.05,1.05.73,1.05.63,0,.7-.54.92-1.63l.37.09c-.19.95-.22,2.38-1.94,2.38-1.48,0-1.92-.68-1.92-2.06v-2.29c0-1.1-.41-1.68-2.01-1.68h-1.16ZM95.61,19.98h.36c2.26,0,3.19-.76,3.19-2.68s-.95-2.38-3.09-2.38h-.46v5.06Z"/>
    <path d="M113.27,22.36h-3.86l-1.26,3.47h1.55v.49h-3.42v-.49h1.19l4.31-11.59h.46l4.16,11.59h1.17v.49h-4.62v-.49h1.49l-1.19-3.47ZM109.58,21.87h3.52l-1.7-5.1-1.82,5.1Z"/>
    <path d="M126.63,14.42l.17,3.28h-.41c-.34-2.53-1.34-2.79-3.45-2.79h-1.53v5.2h.97c1.38,0,1.73-.41,2-2.17h.36v5.03h-.39c-.31-1.87-.58-2.31-2.14-2.31h-.8v5.16h2.19v.49h-5.32v-.49h1.34v-10.91h-1.34v-.49h8.34Z"/>
    <path d="M137.83,17.84h-.41c-.46-2.77-1.34-2.92-3.4-2.92h-.22v10.91h1.61v.49h-5.01v-.49h1.61v-10.91h-.24c-2.06,0-2.94.15-3.4,2.92h-.41l.17-3.42h9.51l.17,3.42Z"/>
    <path d="M147.28,14.42l.17,3.19h-.41c-.34-2.53-1.31-2.7-3.4-2.7h-1.56v5.08h.88c1.38,0,1.73-.41,2-2.17h.36v5.03h-.39c-.31-1.87-.58-2.31-2.14-2.31h-.71v5.28h1.78c2.45,0,3.3-.73,3.69-3.04h.34l-.12,3.53h-8.82v-.49h1.34v-10.91h-1.34v-.49h8.32Z"/>
    <path d="M152.56,20.45v5.37h1.78v.49h-5.01v-.49h1.44v-10.91h-1.44v-.49h4.03c2.6,0,4.72.39,4.72,2.82,0,2.02-1.36,2.72-3.38,2.87v.05c2.09.24,2.85.95,2.85,2.92v1.51c0,.63.05,1.05.73,1.05.63,0,.7-.54.92-1.63l.37.09c-.19.95-.22,2.38-1.94,2.38-1.48,0-1.92-.68-1.92-2.06v-2.29c0-1.1-.41-1.68-2.01-1.68h-1.16ZM152.56,19.98h.36c2.26,0,3.19-.76,3.19-2.68s-.95-2.38-3.09-2.38h-.46v5.06Z"/>
  </g>
  <g>
    <path d="M72.74,31.5l1.16,4.2c.1.37.2.7.29.99h0c.05-.22.12-.49.22-.81l.05-.19,1.06-4.2h.4l1.07,4.2c.15.59.23.92.26,1h0c.14-.42.24-.75.31-1l1.17-4.2h.39l-1.66,5.55h-.42l-1.07-4.04c-.14-.53-.23-.9-.24-1.1h-.02c-.03.21-.12.57-.25,1.1l-1.07,4.04h-.42l-1.64-5.55h.39Z"/>
    <path d="M81.83,31.5h3.16v.33h-2.8v2.21h2.56v.33h-2.56v2.34h2.96v.33h-3.32v-5.55Z"/>
    <path d="M89.17,31.5c.49,0,.87.03,1.14.08.68.17,1.19.49,1.52.95.33.46.5,1.03.5,1.71s-.18,1.31-.54,1.79-.85.8-1.48.93c-.28.06-.62.08-1.02.08h-1.21v-5.55h1.09ZM91.94,34.25c0-.61-.14-1.12-.41-1.51-.28-.4-.67-.67-1.19-.81-.16-.04-.34-.07-.54-.08-.2-.01-.46-.02-.78-.02h-.57v4.88h.6c.3,0,.54,0,.72-.01s.34-.03.5-.07c.53-.12.94-.39,1.24-.81s.45-.95.45-1.57Z"/>
    <path d="M96.43,31.5c.49,0,.87.03,1.14.08.68.17,1.19.49,1.52.95.33.46.5,1.03.5,1.71s-.18,1.31-.54,1.79c-.36.49-.85.8-1.48.93-.28.06-.62.08-1.02.08h-1.21v-5.55h1.09ZM99.2,34.25c0-.61-.14-1.12-.41-1.51-.28-.4-.67-.67-1.19-.81-.16-.04-.34-.07-.54-.08-.2-.01-.46-.02-.78-.02h-.57v4.88h.6c.3,0,.54,0,.72-.01.17,0,.34-.03.5-.07.53-.12.94-.39,1.24-.81s.45-.95.45-1.57Z"/>
    <path d="M102.6,31.5h.37v5.55h-.37v-5.55Z"/>
    <path d="M106.46,31.5l2.5,3.49,1.05,1.5h.02c-.04-.35-.06-.92-.06-1.72v-3.27h.37v5.55h-.32l-2.51-3.53-1.04-1.47h-.02c.03.35.05,1,.05,1.95v3.05h-.37v-5.55h.32Z"/>
    <path d="M113.34,34.4c0-.62.13-1.15.39-1.61.26-.45.61-.8,1.07-1.04.45-.24.97-.36,1.55-.36.24,0,.47.02.68.06s.36.09.45.13v.36c-.14-.05-.32-.1-.55-.14s-.43-.06-.63-.06c-.45,0-.88.1-1.27.29s-.71.48-.94.87-.36.87-.36,1.44c0,.79.22,1.41.67,1.85s1.08.66,1.89.66c.3,0,.64-.06,1.02-.17v-2.02h-1.29v-.35h1.65v2.58c-.08.07-.27.13-.57.19-.29.06-.59.08-.89.08-.9,0-1.6-.24-2.12-.73-.51-.49-.77-1.16-.77-2.02Z"/>
    <path d="M124.21,31.5h3.16v.33h-2.8v2.21h2.56v.33h-2.56v2.34h2.96v.33h-3.32v-5.55Z"/>
    <path d="M129.96,31.5h.42l1.32,2.03.32.45h0l.32-.44,1.35-2.04h.41l-1.82,2.74,1.91,2.81h-.42l-1.44-2.12-.33-.47h-.02l-.34.49-1.44,2.1h-.41l1.95-2.85-1.79-2.7Z"/>
    <path d="M138.22,31.5c.62,0,1.1.13,1.45.38.35.25.52.62.52,1.11,0,.58-.21,1.01-.63,1.29-.42.28-1.03.42-1.83.42-.17,0-.38-.02-.64-.05v2.4h-.37v-5.55h1.49ZM139.81,33c0-.42-.15-.71-.45-.9s-.73-.27-1.27-.27h-.99v2.49c.28.03.49.04.64.04.73,0,1.26-.12,1.59-.35s.49-.57.49-1.01Z"/>
    <path d="M142.87,34.28c0-.55.11-1.05.32-1.49.21-.44.51-.78.89-1.03.38-.25.81-.37,1.3-.37s.95.12,1.33.37c.38.25.67.59.88,1.03s.31.93.31,1.49-.11,1.04-.32,1.48-.51.78-.89,1.03c-.38.25-.81.37-1.29.37-.51,0-.96-.12-1.34-.37-.38-.25-.68-.59-.89-1.02-.21-.43-.31-.93-.31-1.48ZM147.51,34.28c0-.53-.09-.99-.28-1.38-.19-.39-.44-.68-.77-.88-.32-.2-.68-.3-1.08-.3s-.75.1-1.07.3-.58.49-.77.88c-.19.38-.28.84-.28,1.38s.1,1,.29,1.38.45.67.77.87c.32.2.69.29,1.08.29s.74-.1,1.06-.29.57-.49.76-.87.28-.84.28-1.38Z"/>
  </g>
  <g>
    <circle class="st0" cx="18.68" cy="18.65" r="18.14"/>
    <ellipse class="st1" cx="31.53" cy="28.09" rx="17.91" ry="21.91"/>
    <circle class="st0" cx="33.59" cy="33.63" r="15.85"/>
    <path class="st2" d="M35.8,35.69h-6.41l-2.09,5.76h2.57v.82h-5.68v-.82h1.98l7.17-19.26h.76l6.92,19.26h1.95v.82h-7.68v-.82h2.49l-1.98-5.76ZM29.68,34.88h5.85l-2.82-8.47-3.02,8.47Z"/>
    <circle class="st1" cx="21.68" cy="24.62" r="6.97"/>
    <path class="st2" d="M24.98,7.92l.28,5.31h-.68c-.56-4.21-2.17-4.49-5.65-4.49h-2.6v8.44h1.47c2.29,0,2.88-.68,3.33-3.62h.59v8.36h-.65c-.51-3.11-.96-3.84-3.56-3.84h-1.19v8.78h2.97c4.07,0,5.48-1.21,6.13-5.06h.56l-.2,5.88h-14.66v-.82h2.23V8.74h-2.23v-.82h13.84Z"/>
    <line class="st0" x1="32.29" y1="11.19" x2="36.57" y2="18.24"/>
    <line class="st0" x1="34.62" y1="8.38" x2="36.81" y2="18.38"/>
    <line class="st0" x1="38.53" y1="8.99" x2="35.38" y2="11.56"/>
    <line class="st0" x1="38.53" y1="8.99" x2="40.41" y2="12.78"/>
    <line class="st0" x1="42.33" y1="9.67" x2="36.95" y2="18.27"/>
    <line class="st0" x1="42.11" y1="9.29" x2="43.39" y2="13.51"/>
    <polyline class="st0" points="32.35 11.66 34.52 8.44 42.49 9.61"/>
    <line class="st0" x1="43.31" y1="13.23" x2="32.51" y2="11.56"/>
    <line class="st0" x1="43.55" y1="12.98" x2="36.79" y2="18.27"/>
  </g>
</svg>